<?xml version="1.0" encoding="utf-8"?>

<!-- Generator: Adobe Illustrator 19.2.1, SVG Export Plug-In . SVG Version: 6.00 Build 0)  -->
<svg version="1.1" id="Layer_1" xmlns="http://www.w3.org/2000/svg" xmlns:xlink="http://www.w3.org/1999/xlink" x="0px" y="0px"
	 viewBox="0 0 150.4 89" style="enable-background:new 0 0 150.4 89;" xml:space="preserve">
<style type="text/css">
	.st0{fill:black;}
</style>
<path class="st0" d="M148.9,62.4L128.1,46c-1.3-1-1.3-2.6,0-3.6l20.8-16.4c1.3-1,1.8-2.7,1.2-3.8c-0.6-1.1-2.4-1.4-3.9-0.8
	l-24.8,9.9c-1.5,0.6-2.9-0.2-3.2-1.8l-3.7-26.5c-0.2-1.6-1.4-2.9-2.7-2.9c-1.2,0-2.5,1.3-2.7,2.9l-3.7,26.5
	c-0.2,1.6-1.6,2.4-3.2,1.8l-24.4-9.7c-1.5-0.6-4-0.6-5.5,0l-24.4,9.7c-1.5,0.6-2.9-0.2-3.2-1.8L41.2,2.9C41,1.3,39.7,0,38.5,0
	c-1.3,0-2.5,1.3-2.7,2.9l-3.7,26.5c-0.2,1.6-1.6,2.4-3.2,1.8L4.1,21.4c-1.5-0.6-3.3-0.2-3.9,0.8c-0.6,1.1-0.1,2.8,1.2,3.8l20.8,16.4
	c1.3,1,1.3,2.6,0,3.6L1.4,62.4c-1.3,1-1.8,2.8-1.2,4c0.6,1.2,2.4,1.7,3.9,1.1l24.6-9.9c1.5-0.6,2.9,0.2,3.1,1.8l3.5,26.7
	c0.2,1.6,1.6,2.9,3.1,2.9c1.5,0,2.9-1.3,3.1-2.9l3.5-26.7c0.2-1.6,1.6-2.4,3.1-1.8l24.2,9.7c1.5,0.6,4,0.6,5.5,0l24.2-9.7
	c1.5-0.6,2.9,0.2,3.1,1.8l3.6,26.7c0.2,1.6,1.6,2.9,3.1,2.9c1.5,0,2.9-1.3,3.1-2.9l3.5-26.7c0.2-1.6,1.6-2.4,3.1-1.8l24.6,9.9
	c1.5,0.6,3.2,0.1,3.9-1.1C150.7,65.2,150.2,63.4,148.9,62.4z M95.9,46.2L77.5,60.3c-1.3,1-3.4,1-4.7,0L54.5,46.2
	c-1.3-1-1.3-2.6,0-3.6l18.4-14.5c1.3-1,3.4-1,4.6,0l18.4,14.5C97.2,43.6,97.2,45.2,95.9,46.2z"/>
</svg>
