<svg id="Layer_1" data-name="Layer 1" xmlns="http://www.w3.org/2000/svg" viewBox="0 0 150.4 89"><defs><style>.cls-1{fill:#fff;}</style></defs><title>inv_aredotna</title><path class="cls-1" d="M148.9,62.4L128.1,46a2.15,2.15,0,0,1,0-3.6L148.9,26a3.2,3.2,0,0,0,1.2-3.8c-0.6-1.1-2.4-1.4-3.9-.8l-24.8,9.9a2.26,2.26,0,0,1-3.2-1.8L114.5,3A3.1,3.1,0,0,0,111.8.1,3.19,3.19,0,0,0,109.1,3l-3.7,26.5a2.21,2.21,0,0,1-3.2,1.8L77.8,21.6a8.63,8.63,0,0,0-5.5,0L47.9,31.3a2.26,2.26,0,0,1-3.2-1.8L41.2,2.9A3.19,3.19,0,0,0,38.5,0a3.1,3.1,0,0,0-2.7,2.9L32.1,29.4a2.21,2.21,0,0,1-3.2,1.8L4.1,21.4c-1.5-.6-3.3-0.2-3.9.8A3.2,3.2,0,0,0,1.4,26L22.2,42.4a2.15,2.15,0,0,1,0,3.6L1.4,62.4a3.44,3.44,0,0,0-1.2,4,3.13,3.13,0,0,0,3.9,1.1l24.6-9.9a2.16,2.16,0,0,1,3.1,1.8l3.5,26.7a3.11,3.11,0,0,0,6.2,0L45,59.4a2.16,2.16,0,0,1,3.1-1.8l24.2,9.7a8.63,8.63,0,0,0,5.5,0L102,57.6a2.16,2.16,0,0,1,3.1,1.8l3.6,26.7a3.11,3.11,0,0,0,6.2,0l3.5-26.7a2.16,2.16,0,0,1,3.1-1.8l24.6,9.9a3.17,3.17,0,0,0,3.9-1.1A3.26,3.26,0,0,0,148.9,62.4Zm-53-16.2L77.5,60.3a4.06,4.06,0,0,1-4.7,0L54.5,46.2a2.15,2.15,0,0,1,0-3.6L72.9,28.1a3.9,3.9,0,0,1,4.6,0L95.9,42.6A2.15,2.15,0,0,1,95.9,46.2Z" transform="translate(0.05)"/></svg>